<svg xmlns="http://www.w3.org/2000/svg" viewBox="143.491 86.74 88.968 73.474"><defs><style>.a{fill:#fff;stroke:#f0efef;}.b{fill:#f0efef;}</style></defs><g transform="matrix(1, 0.017, -0.017, 1, 145.238, 87.249)"><path class="a" d="M65.138,113.658a39.114,39.114,0,0,0,15.8-11.488,24.535,24.535,0,0,0,0-31.659,39.117,39.117,0,0,0-15.8-11.488A55.48,55.48,0,0,0,43.362,54.8a55.5,55.5,0,0,0-21.774,4.219A39.117,39.117,0,0,0,5.79,70.511,24.877,24.877,0,0,0,0,86.341a24.2,24.2,0,0,0,4.375,13.8,35.992,35.992,0,0,0,12.01,10.9q-.616,1.48-1.263,2.711a15.614,15.614,0,0,1-1.54,2.371q-.893,1.141-1.386,1.785t-1.6,1.817q-1.109,1.17-1.417,1.539c0-.041-.082.052-.247.278s-.257.328-.277.309-.1.08-.247.306l-.216.339-.154.307a1.319,1.319,0,0,0-.123.369,2.41,2.41,0,0,0-.031.4,1.239,1.239,0,0,0,.062.4,2.041,2.041,0,0,0,.708,1.294,1.924,1.924,0,0,0,1.263.492H10.1a51.648,51.648,0,0,0,5.3-.986,51.8,51.8,0,0,0,17.124-7.884,61.856,61.856,0,0,0,10.84.986A55.427,55.427,0,0,0,65.138,113.658Z" transform="translate(0 -54.804)"/></g><g transform="matrix(1, 0.017, -0.017, 1, 147.032, 42.619)"><circle class="b" cx="4.5" cy="4.5" r="4.5" transform="translate(24.986 72.655)"/><circle class="b" cx="4.5" cy="4.5" r="4.5" transform="translate(37.986 72.655)"/><circle class="b" cx="4.5" cy="4.5" r="4.5" transform="translate(50.986 72.655)"/></g></svg>