<svg xmlns="http://www.w3.org/2000/svg" viewBox="50 315 36.836 36.836"><defs><style>.a{fill:#fbbb00;}.b{fill:#518ef8;}.c{fill:#28b446;}.d{fill:#f14336;}</style></defs><g transform="translate(-0.441)"><path class="a" d="M8.164,150.581l-1.282,4.787-4.686.1a18.45,18.45,0,0,1-.136-17.2h0l4.172.765L8.06,143.18a10.992,10.992,0,0,0,.1,7.4Z" transform="translate(50.441 186.68)"/><path class="b" d="M279.319,208.176a18.411,18.411,0,0,1-6.566,17.8h0l-5.255-.268-.744-4.643a10.977,10.977,0,0,0,4.723-5.605h-9.849v-7.286h17.691Z" transform="translate(-192.364 121.801)"/><path class="c" d="M58.261,319.928h0a18.424,18.424,0,0,1-27.753-5.635l5.969-4.886a10.954,10.954,0,0,0,15.785,5.608Z" transform="translate(22.127 27.851)"/><path class="d" d="M56.739,4.24,50.772,9.125A10.952,10.952,0,0,0,34.625,14.86l-6-4.912h0A18.422,18.422,0,0,1,56.739,4.24Z" transform="translate(23.877 315)"/></g></svg>