<svg xmlns="http://www.w3.org/2000/svg" viewBox="49.941 398.5 38.618 30.056"><defs><style>.a{fill:#fff;stroke:#b5b5b5;}.b{fill:#afafaf;}</style></defs><g transform="translate(50.441 399)"><path class="a" d="M3.611,63.93q.714.5,4.3,2.991t5.5,3.831q.21.147.892.64t1.133.8q.451.3,1.092.682a6.333,6.333,0,0,0,1.207.566,3.326,3.326,0,0,0,1.05.189h.042a3.329,3.329,0,0,0,1.05-.189,6.339,6.339,0,0,0,1.207-.566q.64-.378,1.091-.682t1.134-.8q.682-.494.892-.64,1.931-1.343,9.824-6.822a9.972,9.972,0,0,0,2.561-2.582,5.544,5.544,0,0,0,1.029-3.169,3.387,3.387,0,0,0-3.359-3.359H3.359A3,3,0,0,0,.871,55.911,4.237,4.237,0,0,0,0,58.64a4.9,4.9,0,0,0,1.155,2.866A10.42,10.42,0,0,0,3.611,63.93Z" transform="translate(0 -54.82)"/><path class="b" d="M35.518,186.263q-6.885,4.66-10.454,7.242-1.2.881-1.942,1.375a11.983,11.983,0,0,1-1.984,1.007,6.04,6.04,0,0,1-2.309.514h-.042a6.042,6.042,0,0,1-2.309-.514,11.989,11.989,0,0,1-1.984-1.007q-.745-.493-1.942-1.375-2.834-2.078-10.433-7.242A11.12,11.12,0,0,1,0,184.437V201.1a3.233,3.233,0,0,0,.987,2.372,3.234,3.234,0,0,0,2.372.987h30.9a3.369,3.369,0,0,0,3.359-3.359V184.437A11.576,11.576,0,0,1,35.518,186.263Z" transform="translate(0 -174.907)"/></g></svg>